PathFileType	4	(X / Y / Z)	Demo_145623_11_September_2019	Demo_145623_11_September_2019.trc
DataRate	CameraRate	NumFrames	NumMarkers	Units	OrigDataRate	OrigDataStartFrame	OrigNumFrames
50	50	23	25	m	50	50	820
Frame#	Time		SpineBase		SpineMid		Neck		Head		ShoulderLeft		ElbowLeft		WristLeft		HandLeft		ShoulderRight		ElbowRight		WristRight		HandRight		HipLeft		KneeLeft		AnkleLeft		FootLeft		HipRight		KneeRight		AnkleRight		FootRight		SpineShoulder		HandTipLeft		LeftThumb		HandTipRight		ThumbRight		
X1	Y1	Z1	X2	Y2	Z2	X3	Y3	Z3	X4	Y4	Z4	X5	Y5	Z5	X6	Y6	Z6	X7	Y7	Z7	X8	Y8	Z8	X9	Y9	Z9	X10	Y10	Z10	X11	Y11	Z11	X12	Y12	Z12	X13	Y13	Z13	X14	Y14	Z14	X15	Y15	Z15	X16	Y16	Z16	X17	Y17	Z17	X18	Y18	Z18	X19	Y19	Z19	X20	Y20	Z20	X21	Y21	Z21	X22	Y22	Z22	X23	Y23	Z23	X24	Y24	Z24	X25	Y25	Z25	
1	23.313	-0.058	0.796	1.744	-0.056	1.065	1.683	-0.051	1.326	1.611	-0.042	1.465	1.557	-0.198	1.230	1.602	-0.269	1.010	1.687	-0.327	0.801	1.717	-0.340	0.771	1.732	0.103	1.226	1.632	0.164	0.995	1.689	0.252	0.808	1.696	0.271	0.732	1.700	-0.131	0.799	1.706	-0.151	0.497	1.751	-0.105	0.181	1.871	-0.095	0.140	1.760	0.016	0.801	1.718	0.071	0.492	1.695	0.070	0.187	1.834	0.071	0.133	1.717	-0.053	1.262	1.631	-0.370	0.715	1.784	-0.369	0.805	1.741	0.288	0.667	1.692	0.254	0.709	1.688
2	23.330	-0.058	0.796	1.744	-0.056	1.065	1.683	-0.051	1.326	1.611	-0.042	1.465	1.557	-0.198	1.230	1.602	-0.269	1.010	1.687	-0.327	0.801	1.717	-0.340	0.771	1.732	0.103	1.226	1.632	0.164	0.995	1.689	0.252	0.808	1.696	0.271	0.732	1.700	-0.131	0.799	1.706	-0.151	0.497	1.751	-0.105	0.181	1.871	-0.095	0.140	1.760	0.016	0.801	1.718	0.071	0.492	1.695	0.070	0.187	1.834	0.071	0.133	1.717	-0.053	1.262	1.631	-0.370	0.715	1.784	-0.369	0.805	1.741	0.288	0.667	1.692	0.254	0.709	1.688
3	23.347	-0.058	0.797	1.747	-0.054	1.066	1.689	-0.047	1.328	1.622	-0.039	1.466	1.565	-0.194	1.232	1.609	-0.262	1.008	1.682	-0.325	0.791	1.708	-0.312	0.750	1.703	0.107	1.228	1.642	0.165	0.995	1.697	0.253	0.805	1.704	0.272	0.729	1.710	-0.131	0.800	1.709	-0.149	0.499	1.757	-0.103	0.180	1.873	-0.094	0.140	1.761	0.016	0.801	1.722	0.075	0.493	1.712	0.074	0.191	1.861	0.077	0.131	1.739	-0.049	1.264	1.641	-0.313	0.681	1.727	-0.349	0.771	1.714	0.287	0.665	1.701	0.254	0.707	1.692
4	23.363	-0.058	0.797	1.747	-0.054	1.066	1.689	-0.047	1.328	1.622	-0.039	1.466	1.565	-0.194	1.232	1.609	-0.262	1.008	1.682	-0.325	0.791	1.708	-0.312	0.750	1.703	0.107	1.228	1.642	0.165	0.995	1.697	0.253	0.805	1.704	0.272	0.729	1.710	-0.131	0.800	1.709	-0.149	0.499	1.757	-0.103	0.180	1.873	-0.094	0.140	1.761	0.016	0.801	1.722	0.075	0.493	1.712	0.074	0.191	1.861	0.077	0.131	1.739	-0.049	1.264	1.641	-0.313	0.681	1.727	-0.349	0.771	1.714	0.287	0.665	1.701	0.254	0.707	1.692
5	23.380	-0.058	0.797	1.750	-0.052	1.067	1.695	-0.043	1.329	1.631	-0.035	1.467	1.574	-0.190	1.233	1.616	-0.252	1.004	1.673	-0.294	0.759	1.681	-0.271	0.703	1.669	0.112	1.229	1.650	0.167	0.995	1.703	0.254	0.804	1.711	0.274	0.727	1.717	-0.130	0.800	1.712	-0.145	0.499	1.764	-0.103	0.177	1.874	-0.094	0.140	1.762	0.016	0.801	1.724	0.078	0.494	1.729	0.078	0.193	1.881	0.082	0.132	1.760	-0.045	1.265	1.649	-0.260	0.629	1.671	-0.305	0.703	1.685	0.288	0.663	1.709	0.256	0.704	1.702
6	23.397	-0.058	0.797	1.750	-0.052	1.067	1.695	-0.043	1.329	1.631	-0.035	1.467	1.574	-0.190	1.233	1.616	-0.252	1.004	1.673	-0.294	0.759	1.681	-0.271	0.703	1.669	0.112	1.229	1.650	0.167	0.995	1.703	0.254	0.804	1.711	0.274	0.727	1.717	-0.130	0.800	1.712	-0.145	0.499	1.764	-0.103	0.177	1.874	-0.094	0.140	1.762	0.016	0.801	1.724	0.078	0.494	1.729	0.078	0.193	1.881	0.082	0.132	1.760	-0.045	1.265	1.649	-0.260	0.629	1.671	-0.305	0.703	1.685	0.288	0.663	1.709	0.256	0.704	1.702
7	23.413	-0.058	0.797	1.750	-0.052	1.067	1.695	-0.043	1.329	1.631	-0.035	1.467	1.574	-0.190	1.233	1.616	-0.252	1.004	1.673	-0.294	0.759	1.681	-0.271	0.703	1.669	0.112	1.229	1.650	0.167	0.995	1.703	0.254	0.804	1.711	0.274	0.727	1.717	-0.130	0.800	1.712	-0.145	0.499	1.764	-0.103	0.177	1.874	-0.094	0.140	1.762	0.016	0.801	1.724	0.078	0.494	1.729	0.078	0.193	1.881	0.082	0.132	1.760	-0.045	1.265	1.649	-0.260	0.629	1.671	-0.305	0.703	1.685	0.288	0.663	1.709	0.256	0.704	1.702
8	23.430	-0.058	0.797	1.750	-0.052	1.067	1.695	-0.043	1.329	1.631	-0.035	1.467	1.574	-0.190	1.233	1.616	-0.252	1.004	1.673	-0.294	0.759	1.681	-0.271	0.703	1.669	0.112	1.229	1.650	0.167	0.995	1.703	0.254	0.804	1.711	0.274	0.727	1.717	-0.130	0.800	1.712	-0.145	0.499	1.764	-0.103	0.177	1.874	-0.094	0.140	1.762	0.016	0.801	1.724	0.078	0.494	1.729	0.078	0.193	1.881	0.082	0.132	1.760	-0.045	1.265	1.649	-0.260	0.629	1.671	-0.305	0.703	1.685	0.288	0.663	1.709	0.256	0.704	1.702
9	23.447	-0.058	0.797	1.750	-0.052	1.067	1.695	-0.043	1.329	1.631	-0.035	1.467	1.574	-0.190	1.233	1.616	-0.252	1.004	1.673	-0.294	0.759	1.681	-0.271	0.703	1.669	0.112	1.229	1.650	0.167	0.995	1.703	0.254	0.804	1.711	0.274	0.727	1.717	-0.130	0.800	1.712	-0.145	0.499	1.764	-0.103	0.177	1.874	-0.094	0.140	1.762	0.016	0.801	1.724	0.078	0.494	1.729	0.078	0.193	1.881	0.082	0.132	1.760	-0.045	1.265	1.649	-0.260	0.629	1.671	-0.305	0.703	1.685	0.288	0.663	1.709	0.256	0.704	1.702
10	23.464	-0.058	0.797	1.750	-0.052	1.067	1.695	-0.043	1.329	1.631	-0.035	1.467	1.574	-0.190	1.233	1.616	-0.252	1.004	1.673	-0.294	0.759	1.681	-0.271	0.703	1.669	0.112	1.229	1.650	0.167	0.995	1.703	0.254	0.804	1.711	0.274	0.727	1.717	-0.130	0.800	1.712	-0.145	0.499	1.764	-0.103	0.177	1.874	-0.094	0.140	1.762	0.016	0.801	1.724	0.078	0.494	1.729	0.078	0.193	1.881	0.082	0.132	1.760	-0.045	1.265	1.649	-0.260	0.629	1.671	-0.305	0.703	1.685	0.288	0.663	1.709	0.256	0.704	1.702
11	23.480	-0.044	0.797	1.757	-0.032	1.069	1.710	-0.019	1.334	1.655	-0.018	1.470	1.594	-0.168	1.238	1.632	-0.209	0.994	1.649	-0.231	0.757	1.641	-0.211	0.681	1.633	0.133	1.230	1.671	0.179	0.994	1.717	0.258	0.805	1.719	0.282	0.725	1.726	-0.114	0.801	1.719	-0.140	0.498	1.770	-0.102	0.177	1.875	-0.093	0.141	1.762	0.028	0.800	1.732	0.086	0.499	1.774	0.085	0.197	1.923	0.091	0.136	1.798	-0.022	1.269	1.671	-0.224	0.612	1.641	-0.239	0.686	1.603	0.292	0.662	1.719	0.271	0.707	1.720
12	23.497	-0.044	0.797	1.757	-0.032	1.069	1.710	-0.019	1.334	1.655	-0.018	1.470	1.594	-0.168	1.238	1.632	-0.209	0.994	1.649	-0.231	0.757	1.641	-0.211	0.681	1.633	0.133	1.230	1.671	0.179	0.994	1.717	0.258	0.805	1.719	0.282	0.725	1.726	-0.114	0.801	1.719	-0.140	0.498	1.770	-0.102	0.177	1.875	-0.093	0.141	1.762	0.028	0.800	1.732	0.086	0.499	1.774	0.085	0.197	1.923	0.091	0.136	1.798	-0.022	1.269	1.671	-0.224	0.612	1.641	-0.239	0.686	1.603	0.292	0.662	1.719	0.271	0.707	1.720
13	23.514	-0.030	0.797	1.763	-0.019	1.070	1.719	-0.007	1.336	1.666	-0.005	1.472	1.608	-0.154	1.240	1.641	-0.188	0.991	1.636	-0.192	0.746	1.598	-0.189	0.706	1.569	0.145	1.231	1.681	0.189	0.993	1.725	0.264	0.806	1.726	0.290	0.725	1.733	-0.099	0.801	1.724	-0.135	0.497	1.775	-0.101	0.176	1.876	-0.093	0.141	1.763	0.040	0.800	1.738	0.089	0.501	1.794	0.087	0.201	1.939	0.096	0.141	1.816	-0.010	1.271	1.681	-0.186	0.641	1.560	-0.218	0.695	1.561	0.298	0.662	1.727	0.286	0.708	1.729
14	23.530	-0.030	0.797	1.763	-0.019	1.070	1.719	-0.007	1.336	1.666	-0.005	1.472	1.608	-0.154	1.240	1.641	-0.188	0.991	1.636	-0.192	0.746	1.598	-0.189	0.706	1.569	0.145	1.231	1.681	0.189	0.993	1.725	0.264	0.806	1.726	0.290	0.725	1.733	-0.099	0.801	1.724	-0.135	0.497	1.775	-0.101	0.176	1.876	-0.093	0.141	1.763	0.040	0.800	1.738	0.089	0.501	1.794	0.087	0.201	1.939	0.096	0.141	1.816	-0.010	1.271	1.681	-0.186	0.641	1.560	-0.218	0.695	1.561	0.298	0.662	1.727	0.286	0.708	1.729
15	23.547	-0.016	0.797	1.767	-0.007	1.072	1.725	0.002	1.338	1.673	0.007	1.474	1.618	-0.143	1.242	1.647	-0.174	0.990	1.628	-0.175	0.743	1.580	-0.172	0.698	1.562	0.154	1.232	1.688	0.199	0.994	1.731	0.271	0.808	1.732	0.300	0.725	1.737	-0.086	0.802	1.728	-0.130	0.495	1.779	-0.101	0.176	1.877	-0.092	0.141	1.764	0.053	0.800	1.742	0.091	0.502	1.803	0.089	0.202	1.948	0.098	0.143	1.826	-0.001	1.272	1.688	-0.168	0.646	1.553	-0.199	0.681	1.560	0.305	0.662	1.734	0.300	0.704	1.740
16	23.564	-0.016	0.797	1.767	-0.007	1.072	1.725	0.002	1.338	1.673	0.007	1.474	1.618	-0.143	1.242	1.647	-0.174	0.990	1.628	-0.175	0.743	1.580	-0.172	0.698	1.562	0.154	1.232	1.688	0.199	0.994	1.731	0.271	0.808	1.732	0.300	0.725	1.737	-0.086	0.802	1.728	-0.130	0.495	1.779	-0.101	0.176	1.877	-0.092	0.141	1.764	0.053	0.800	1.742	0.091	0.502	1.803	0.089	0.202	1.948	0.098	0.143	1.826	-0.001	1.272	1.688	-0.168	0.646	1.553	-0.199	0.681	1.560	0.305	0.662	1.734	0.300	0.704	1.740
17	23.580	-0.003	0.799	1.771	0.003	1.073	1.730	0.009	1.339	1.677	0.018	1.476	1.625	-0.133	1.244	1.650	-0.163	0.990	1.622	-0.152	0.773	1.552	-0.150	0.734	1.517	0.162	1.233	1.693	0.210	0.994	1.734	0.281	0.810	1.736	0.312	0.726	1.739	-0.073	0.803	1.731	-0.124	0.493	1.781	-0.100	0.175	1.878	-0.091	0.141	1.765	0.067	0.801	1.747	0.093	0.502	1.810	0.089	0.200	1.951	0.100	0.145	1.833	0.008	1.274	1.692	-0.140	0.679	1.507	-0.148	0.704	1.556	0.314	0.662	1.740	0.311	0.705	1.747
18	23.597	-0.003	0.799	1.771	0.003	1.073	1.730	0.009	1.339	1.677	0.018	1.476	1.625	-0.133	1.244	1.650	-0.163	0.990	1.622	-0.152	0.773	1.552	-0.150	0.734	1.517	0.162	1.233	1.693	0.210	0.994	1.734	0.281	0.810	1.736	0.312	0.726	1.739	-0.073	0.803	1.731	-0.124	0.493	1.781	-0.100	0.175	1.878	-0.091	0.141	1.765	0.067	0.801	1.747	0.093	0.502	1.810	0.089	0.200	1.951	0.100	0.145	1.833	0.008	1.274	1.692	-0.140	0.679	1.507	-0.148	0.704	1.556	0.314	0.662	1.740	0.311	0.705	1.747
19	23.614	0.009	0.800	1.773	0.012	1.075	1.733	0.016	1.341	1.681	0.028	1.477	1.631	-0.125	1.246	1.652	-0.154	0.991	1.619	-0.135	0.807	1.532	-0.130	0.762	1.493	0.170	1.234	1.697	0.221	0.995	1.738	0.295	0.810	1.740	0.326	0.727	1.740	-0.062	0.805	1.733	-0.118	0.492	1.781	-0.100	0.175	1.879	-0.090	0.141	1.766	0.079	0.803	1.750	0.095	0.503	1.814	0.089	0.178	1.962	0.095	0.135	1.868	0.015	1.276	1.696	-0.119	0.697	1.483	-0.115	0.719	1.546	0.325	0.663	1.743	0.323	0.693	1.750
20	23.631	0.009	0.800	1.773	0.012	1.075	1.733	0.016	1.341	1.681	0.028	1.477	1.631	-0.125	1.246	1.652	-0.154	0.991	1.619	-0.135	0.807	1.532	-0.130	0.762	1.493	0.170	1.234	1.697	0.221	0.995	1.738	0.295	0.810	1.740	0.326	0.727	1.740	-0.062	0.805	1.733	-0.118	0.492	1.781	-0.100	0.175	1.879	-0.090	0.141	1.766	0.079	0.803	1.750	0.095	0.503	1.814	0.089	0.178	1.962	0.095	0.135	1.868	0.015	1.276	1.696	-0.119	0.697	1.483	-0.115	0.719	1.546	0.325	0.663	1.743	0.323	0.693	1.750
21	23.647	0.021	0.802	1.775	0.022	1.077	1.735	0.023	1.342	1.683	0.039	1.479	1.636	-0.117	1.248	1.654	-0.146	0.993	1.618	-0.125	0.828	1.522	-0.114	0.777	1.482	0.178	1.234	1.700	0.232	0.996	1.740	0.306	0.811	1.742	0.340	0.728	1.740	-0.051	0.806	1.734	-0.111	0.497	1.774	-0.099	0.177	1.878	-0.089	0.141	1.766	0.091	0.804	1.753	0.098	0.504	1.817	0.089	0.168	1.966	0.093	0.132	1.885	0.022	1.277	1.698	-0.100	0.711	1.469	-0.106	0.732	1.524	0.338	0.664	1.745	0.336	0.694	1.752
22	23.664	0.021	0.802	1.775	0.022	1.077	1.735	0.023	1.342	1.683	0.039	1.479	1.636	-0.117	1.248	1.654	-0.146	0.993	1.618	-0.125	0.828	1.522	-0.114	0.777	1.482	0.178	1.234	1.700	0.232	0.996	1.740	0.306	0.811	1.742	0.340	0.728	1.740	-0.051	0.806	1.734	-0.111	0.497	1.774	-0.099	0.177	1.878	-0.089	0.141	1.766	0.091	0.804	1.753	0.098	0.504	1.817	0.089	0.168	1.966	0.093	0.132	1.885	0.022	1.277	1.698	-0.100	0.711	1.469	-0.106	0.732	1.524	0.338	0.664	1.745	0.336	0.694	1.752
23	23.681	0.030	0.803	1.777	0.029	1.078	1.737	0.029	1.343	1.684	0.048	1.480	1.640	-0.109	1.249	1.654	-0.140	0.995	1.618	-0.118	0.840	1.517	-0.100	0.786	1.476	0.185	1.235	1.703	0.241	0.997	1.742	0.318	0.812	1.743	0.353	0.729	1.739	-0.042	0.808	1.735	-0.106	0.501	1.768	-0.099	0.178	1.877	-0.087	0.141	1.766	0.100	0.806	1.755	0.102	0.505	1.818	0.089	0.162	1.967	0.092	0.130	1.895	0.029	1.278	1.699	-0.081	0.721	1.461	-0.100	0.743	1.512	0.352	0.665	1.746	0.347	0.701	1.754
